PathFileType	4	(X/Y/Z)	C:\Users\dbl\Desktop\20210112\20210112\bx_n_0_503.trc
DataRate	CameraRate	NumFrames	NumMarkers	Units	OrigDataRate	OrigDataStartFrame	OrigNumFrames
50.00	50.00	       5	43	mm	50.00	250	       333
Frame#	Time	Top.Head			R.Acromium			L.Acromium			Sternum			R.ASIS			L.ASIS			V.Sacral			R.Thigh.Upper			R.Thigh.Front			R.Thigh.Rear			R.Knee.Lat			R.Knee.Med			R.Shank.Upper			R.Shank.Front			R.Shank.Rear			R.Ankle.Lat			R.Midfoot.Lat			R.Toe.Lat			R.Toe.Tip			R.Toe.Med			R.Ankle.Med			R.Midfoot.Sup			R.Heel			L.Thigh.Upper			L.Thigh.Front			L.Thigh.Rear			L.Knee.Lat			L.Knee.Med			L.Shank.Upper			L.Shank.Front			L.Shank.Rear			L.Ankle.Lat			L.Midfoot.Lat			L.Toe.Lat			L.Toe.Tip			L.Toe.Med			L.Ankle.Med			L.Midfoot.Sup			L.Heel			origin1 front left			origin2 front right			origin 3 back right			origin 4 back leftt			
		X1	Y1	Z1	X2	Y2	Z2	X3	Y3	Z3	X4	Y4	Z4	X5	Y5	Z5	X6	Y6	Z6	X7	Y7	Z7	X8	Y8	Z8	X9	Y9	Z9	X10	Y10	Z10	X11	Y11	Z11	X12	Y12	Z12	X13	Y13	Z13	X14	Y14	Z14	X15	Y15	Z15	X16	Y16	Z16	X17	Y17	Z17	X18	Y18	Z18	X19	Y19	Z19	X20	Y20	Z20	X21	Y21	Z21	X22	Y22	Z22	X23	Y23	Z23	X24	Y24	Z24	X25	Y25	Z25	X26	Y26	Z26	X27	Y27	Z27	X28	Y28	Z28	X29	Y29	Z29	X30	Y30	Z30	X31	Y31	Z31	X32	Y32	Z32	X33	Y33	Z33	X34	Y34	Z34	X35	Y35	Z35	X36	Y36	Z36	X37	Y37	Z37	X38	Y38	Z38	X39	Y39	Z39	X40	Y40	Z40	X41	Y41	Z41	X42	Y42	Z42	X43	Y43	Z43	

250	4.980	-544.50653	115.79584	1813.74011	-562.55591	-69.16836	1506.58264	-590.30682	289.10928	1509.82434	-550.03882	115.05457	1304.16516	-654.47546	-1.99427	1046.18408	-669.44672	241.98010	1060.96790	-858.09143	91.71481	1076.15747	-724.70862	-69.04199	875.32330	-642.94867	-5.97852	807.59949	-734.46069	-62.19512	757.60992	-743.09192	-35.71284	614.35651	-727.28223	73.23405	571.08319	-747.31329	-33.80819	568.25281	-694.62195	14.53807	522.71649	-783.84729	-47.36668	485.57724	-762.27814	-21.29524	205.67908	-648.18652	-67.59144	161.85724	-606.06439	-71.82569	158.24966	-549.98676	-22.96426	162.81889	-601.56537	28.58312	167.50385	-723.82306	67.31642	217.74178	-675.51471	52.13936	160.88394	-794.71277	36.54488	173.66858	-752.16895	285.67752	875.00201	-647.83173	224.40953	799.31226	-746.40063	274.73160	742.76984	-771.01270	254.85909	638.19348	-726.64868	144.51971	574.53162	-761.24469	248.61267	574.03644	-705.41278	206.04219	536.73853	-793.67694	260.76135	497.61572	-767.36285	228.74271	204.32541	-652.56360	291.75873	156.53777	-615.46802	297.80188	158.59320	-553.32172	242.66698	165.90930	-589.93365	208.18613	174.26311	-717.35370	151.92638	219.53915	-675.78168	167.24567	159.51784	-796.46130	181.74110	183.23172	-528.05219	303.80405	146.42049	-517.93433	-72.88366	143.15576	-875.61639	-78.80252	141.12401	-882.49860	296.18637	144.72473	
251	5.000	-551.68573	115.15224	1816.94592	-566.92407	-69.32403	1509.21118	-594.76282	289.24329	1512.59033	-551.39667	115.29556	1307.13977	-652.23389	-1.61118	1046.70093	-667.26947	242.36491	1061.40381	-856.11511	92.01313	1075.68347	-722.21436	-68.88996	875.56732	-640.71887	-5.87607	807.52875	-732.51166	-61.85190	757.67865	-741.76807	-35.41106	614.39539	-725.94409	73.39462	571.07629	-746.03607	-33.57106	568.34979	-693.52496	14.70215	522.57269	-782.92157	-47.12798	485.80759	-762.22198	-21.25557	205.74765	-648.18988	-67.59601	161.89633	-606.05560	-71.82058	158.24246	-549.94336	-22.99025	162.86540	-601.41138	28.60196	167.53996	-723.74377	67.15119	217.41922	-675.54706	52.21786	160.75801	-794.70453	36.66620	173.77478	-749.88147	286.00858	875.04089	-645.77551	224.64247	799.27600	-744.50702	274.84259	742.91284	-769.50336	255.09050	638.30164	-725.37024	144.77640	574.73810	-759.94495	248.66469	574.06598	-704.24829	206.21053	536.67902	-792.58063	260.86215	497.66248	-767.26868	228.84508	204.46654	-652.56915	291.76733	156.52217	-615.45422	297.80881	158.56033	-553.29651	242.66911	165.90009	-589.94000	208.21753	174.24405	-717.17859	151.90063	219.48553	-675.78674	167.21843	159.48051	-796.43884	181.64816	183.24548	-528.08057	303.85458	146.42757	-517.90967	-72.91038	143.16122	-875.74841	-78.76376	141.26581	-882.50586	296.17685	144.70284	
252	5.020	-558.70508	114.56445	1820.03027	-571.31989	-69.48750	1511.77209	-599.17340	289.39948	1515.19873	-552.71558	115.49863	1310.02197	-649.96552	-1.23642	1047.25354	-665.07068	242.77840	1061.82446	-854.13245	92.33422	1075.23840	-719.71619	-68.74797	875.78986	-638.51794	-5.68544	807.45709	-730.60870	-61.54520	757.74512	-740.49011	-35.07590	614.46246	-724.62006	73.52589	571.07306	-744.64630	-33.39801	568.47241	-692.48334	14.87004	522.44354	-782.02191	-46.83012	486.05075	-762.16040	-21.21327	205.80499	-648.24762	-67.59724	161.91843	-606.06079	-71.80698	158.21286	-549.91028	-23.03032	162.90970	-601.15009	28.59208	167.62108	-723.61975	67.10709	217.24745	-675.58167	52.27999	160.65126	-794.66248	36.76088	173.86890	-747.56970	286.30664	875.03552	-643.66235	224.87741	799.29468	-742.50500	274.97763	743.04443	-767.92804	255.33250	638.42078	-724.08301	145.04997	574.88818	-758.57715	248.80905	574.06781	-702.99170	206.29521	536.61572	-791.41089	260.98300	497.76102	-767.20129	228.88548	204.56421	-652.56934	291.77875	156.53471	-615.43665	297.80472	158.52675	-553.30719	242.72743	165.88893	-589.90863	208.22235	174.21599	-716.93115	151.91902	219.34572	-675.78363	167.18826	159.43816	-796.39905	181.55904	183.27855	-528.08875	303.88104	146.43803	-517.87592	-72.95531	143.17789	-875.86060	-78.70380	141.35141	-882.52460	296.19760	144.70114	
253	5.040	-565.56573	114.02451	1822.98401	-575.72394	-69.67311	1514.23840	-603.52515	289.56949	1517.61572	-553.97131	115.65086	1312.80750	-647.68048	-0.88124	1047.85559	-662.87714	243.19067	1062.25610	-852.12238	92.68392	1074.77332	-717.25958	-68.56508	875.93219	-636.36188	-5.35304	807.39526	-728.70935	-61.27094	757.84265	-739.18518	-34.77720	614.55756	-723.28198	73.68341	571.10211	-743.16663	-33.29753	568.68134	-691.45056	15.04358	522.34692	-781.12207	-46.51943	486.29056	-762.08093	-21.16357	205.86328	-648.32428	-67.58806	161.93596	-606.07098	-71.78519	158.17879	-549.89728	-23.09595	162.93498	-600.90356	28.57322	167.70583	-723.42432	67.25762	217.28673	-675.61176	52.30376	160.59689	-794.60181	36.83647	173.92009	-745.22675	286.55017	875.01251	-641.45892	225.11916	799.36255	-740.45013	275.12650	743.13361	-766.25201	255.54631	638.57391	-722.76416	145.32509	574.96472	-757.17590	249.05602	574.10303	-701.69397	206.31372	536.51965	-790.22009	261.10370	497.93082	-767.14282	228.86154	204.62369	-652.56519	291.80380	156.55325	-615.41888	297.80405	158.50711	-553.33264	242.83208	165.86868	-589.83337	208.20305	174.21048	-716.68622	151.98914	219.10016	-675.74878	167.16011	159.40909	-796.35541	181.50021	183.32083	-528.07135	303.88785	146.44466	-517.85492	-72.99031	143.19145	-875.90265	-78.66767	141.35466	-882.54907	296.22708	144.70828	
254	5.060	-572.28467	113.53632	1825.79114	-580.15601	-69.88373	1516.60095	-607.81134	289.73441	1519.85046	-555.17303	115.76333	1315.50781	-645.38733	-0.53082	1048.46045	-660.66553	243.55627	1062.67920	-850.05750	93.06954	1074.25049	-714.84100	-68.29351	875.96991	-634.21582	-4.92659	807.33575	-726.76624	-60.97510	757.95172	-737.78821	-34.57750	614.67719	-721.90753	73.90208	571.18719	-741.69922	-33.21621	568.93726	-690.37482	15.20877	522.27277	-780.21088	-46.22226	486.51956	-761.98010	-21.11406	205.93138	-648.38452	-67.56203	161.98817	-606.07458	-71.75542	158.16937	-549.89880	-23.18241	162.93690	-600.77301	28.56233	167.74734	-723.16705	67.56399	217.43501	-675.63489	52.30067	160.57817	-794.51563	36.90718	173.92162	-742.81915	286.78433	875.02533	-639.14331	225.35727	799.44623	-738.37115	275.24823	743.18713	-764.47058	255.71095	638.75494	-721.41571	145.55719	575.03748	-755.76508	249.32393	574.17834	-700.42255	206.32527	536.37238	-789.04761	261.21268	498.13083	-767.06702	228.78780	204.65836	-652.55560	291.83359	156.55350	-615.39880	297.81662	158.50667	-553.32953	242.94269	165.84268	-589.72876	208.15755	174.23561	-716.48865	152.06145	218.80566	-675.68311	167.13838	159.40230	-796.32172	181.47536	183.35716	-528.03302	303.88281	146.46176	-517.85175	-72.99517	143.19107	-875.90588	-78.67169	141.31876	-882.57007	296.23099	144.70384	
